<mxfile host="app.diagrams.net" agent="Mozilla/5.0 (Windows NT 10.0; Win64; x64) AppleWebKit/537.36 (KHTML, like Gecko) Chrome/131.0.0.0 Safari/537.36" version="26.0.6">
  <diagram name="PÃ¡gina-1" id="kjSnOROL33GnT8jRxuhp">
    <mxGraphModel>
      <root>
        <mxCell id="0" />
        <mxCell id="1" parent="0" />
        <mxCell id="2" value="Maintenance" style="whiteSpace=wrap;strokeWidth=2;verticalAlign=top;" vertex="1" parent="1">
          <mxGeometry x="8" y="8" width="1463" height="148" as="geometry" />
        </mxCell>
        <mxCell id="3" value="Monitor system performance" style="whiteSpace=wrap;strokeWidth=2;" vertex="1" parent="2">
          <mxGeometry x="46" y="43" width="260" height="78" as="geometry" />
        </mxCell>
        <mxCell id="4" value="Provide user support" style="rounded=1;arcSize=20;strokeWidth=2" vertex="1" parent="2">
          <mxGeometry x="381" y="55" width="177" height="54" as="geometry" />
        </mxCell>
        <mxCell id="5" value="Regular updates and patches" style="rounded=1;arcSize=20;strokeWidth=2" vertex="1" parent="2">
          <mxGeometry x="633" y="43" width="230" height="78" as="geometry" />
        </mxCell>
        <mxCell id="6" value="Analyze user feedback" style="rounded=1;arcSize=20;strokeWidth=2" vertex="1" parent="2">
          <mxGeometry x="938" y="55" width="191" height="54" as="geometry" />
        </mxCell>
        <mxCell id="7" value="Implement requested changes" style="rounded=1;arcSize=20;strokeWidth=2" vertex="1" parent="2">
          <mxGeometry x="1203" y="43" width="230" height="78" as="geometry" />
        </mxCell>
        <mxCell id="8" value="" style="curved=1;startArrow=none;endArrow=block;exitX=1;exitY=0.5;entryX=0;entryY=0.5;" edge="1" parent="2" source="3" target="4">
          <mxGeometry relative="1" as="geometry">
            <Array as="points" />
          </mxGeometry>
        </mxCell>
        <mxCell id="9" value="" style="curved=1;startArrow=none;endArrow=block;exitX=1;exitY=0.5;entryX=0;entryY=0.5;" edge="1" parent="2" source="4" target="5">
          <mxGeometry relative="1" as="geometry">
            <Array as="points" />
          </mxGeometry>
        </mxCell>
        <mxCell id="10" value="" style="curved=1;startArrow=none;endArrow=block;exitX=1;exitY=0.5;entryX=0;entryY=0.5;" edge="1" parent="2" source="5" target="6">
          <mxGeometry relative="1" as="geometry">
            <Array as="points" />
          </mxGeometry>
        </mxCell>
        <mxCell id="11" value="" style="curved=1;startArrow=none;endArrow=block;exitX=1;exitY=0.5;entryX=0;entryY=0.5;" edge="1" parent="2" source="6" target="7">
          <mxGeometry relative="1" as="geometry">
            <Array as="points" />
          </mxGeometry>
        </mxCell>
        <mxCell id="12" value="Deployment" style="whiteSpace=wrap;strokeWidth=2;verticalAlign=top;" vertex="1" parent="1">
          <mxGeometry x="1521" y="8" width="1512" height="148" as="geometry" />
        </mxCell>
        <mxCell id="13" value="Create deployment plan" style="whiteSpace=wrap;strokeWidth=2;" vertex="1" parent="12">
          <mxGeometry x="46" y="55" width="233" height="54" as="geometry" />
        </mxCell>
        <mxCell id="14" value="Install software components" style="rounded=1;arcSize=20;strokeWidth=2" vertex="1" parent="12">
          <mxGeometry x="354" y="43" width="230" height="78" as="geometry" />
        </mxCell>
        <mxCell id="15" value="Configure system settings" style="rounded=1;arcSize=20;strokeWidth=2" vertex="1" parent="12">
          <mxGeometry x="659" y="55" width="214" height="54" as="geometry" />
        </mxCell>
        <mxCell id="16" value="Perform user acceptance testing" style="rounded=1;arcSize=20;strokeWidth=2" vertex="1" parent="12">
          <mxGeometry x="947" y="43" width="230" height="78" as="geometry" />
        </mxCell>
        <mxCell id="17" value="Release software to production" style="rounded=1;arcSize=20;strokeWidth=2" vertex="1" parent="12">
          <mxGeometry x="1252" y="43" width="230" height="78" as="geometry" />
        </mxCell>
        <mxCell id="18" value="" style="curved=1;startArrow=none;endArrow=block;exitX=1;exitY=0.5;entryX=0;entryY=0.5;" edge="1" parent="12" source="13" target="14">
          <mxGeometry relative="1" as="geometry">
            <Array as="points" />
          </mxGeometry>
        </mxCell>
        <mxCell id="19" value="" style="curved=1;startArrow=none;endArrow=block;exitX=1;exitY=0.5;entryX=0;entryY=0.5;" edge="1" parent="12" source="14" target="15">
          <mxGeometry relative="1" as="geometry">
            <Array as="points" />
          </mxGeometry>
        </mxCell>
        <mxCell id="20" value="" style="curved=1;startArrow=none;endArrow=block;exitX=1;exitY=0.5;entryX=0;entryY=0.5;" edge="1" parent="12" source="15" target="16">
          <mxGeometry relative="1" as="geometry">
            <Array as="points" />
          </mxGeometry>
        </mxCell>
        <mxCell id="21" value="" style="curved=1;startArrow=none;endArrow=block;exitX=1;exitY=0.5;entryX=0;entryY=0.5;" edge="1" parent="12" source="16" target="17">
          <mxGeometry relative="1" as="geometry">
            <Array as="points" />
          </mxGeometry>
        </mxCell>
        <mxCell id="22" value="Testing" style="whiteSpace=wrap;strokeWidth=2;verticalAlign=top;" vertex="1" parent="1">
          <mxGeometry x="3083" y="8" width="1371" height="148" as="geometry" />
        </mxCell>
        <mxCell id="23" value="Prepare test cases" style="whiteSpace=wrap;strokeWidth=2;" vertex="1" parent="22">
          <mxGeometry x="46" y="55" width="191" height="54" as="geometry" />
        </mxCell>
        <mxCell id="24" value="Execute functional tests" style="rounded=1;arcSize=20;strokeWidth=2" vertex="1" parent="22">
          <mxGeometry x="311" y="55" width="204" height="54" as="geometry" />
        </mxCell>
        <mxCell id="25" value="Conduct performance testing" style="rounded=1;arcSize=20;strokeWidth=2" vertex="1" parent="22">
          <mxGeometry x="590" y="43" width="230" height="78" as="geometry" />
        </mxCell>
        <mxCell id="26" value="Perform security testing" style="rounded=1;arcSize=20;strokeWidth=2" vertex="1" parent="22">
          <mxGeometry x="895" y="55" width="203" height="54" as="geometry" />
        </mxCell>
        <mxCell id="27" value="Report and fix bugs" style="rounded=1;arcSize=20;strokeWidth=2" vertex="1" parent="22">
          <mxGeometry x="1173" y="55" width="169" height="54" as="geometry" />
        </mxCell>
        <mxCell id="28" value="" style="curved=1;startArrow=none;endArrow=block;exitX=1;exitY=0.5;entryX=0;entryY=0.5;" edge="1" parent="22" source="23" target="24">
          <mxGeometry relative="1" as="geometry">
            <Array as="points" />
          </mxGeometry>
        </mxCell>
        <mxCell id="29" value="" style="curved=1;startArrow=none;endArrow=block;exitX=1;exitY=0.5;entryX=0;entryY=0.5;" edge="1" parent="22" source="24" target="25">
          <mxGeometry relative="1" as="geometry">
            <Array as="points" />
          </mxGeometry>
        </mxCell>
        <mxCell id="30" value="" style="curved=1;startArrow=none;endArrow=block;exitX=1;exitY=0.5;entryX=0;entryY=0.5;" edge="1" parent="22" source="25" target="26">
          <mxGeometry relative="1" as="geometry">
            <Array as="points" />
          </mxGeometry>
        </mxCell>
        <mxCell id="31" value="" style="curved=1;startArrow=none;endArrow=block;exitX=1;exitY=0.5;entryX=0;entryY=0.5;" edge="1" parent="22" source="26" target="27">
          <mxGeometry relative="1" as="geometry">
            <Array as="points" />
          </mxGeometry>
        </mxCell>
        <mxCell id="32" value="Development" style="whiteSpace=wrap;strokeWidth=2;verticalAlign=top;" vertex="1" parent="1">
          <mxGeometry x="4504" y="8" width="1454" height="148" as="geometry" />
        </mxCell>
        <mxCell id="33" value="Create technical specifications" style="whiteSpace=wrap;strokeWidth=2;" vertex="1" parent="32">
          <mxGeometry x="46" y="43" width="260" height="78" as="geometry" />
        </mxCell>
        <mxCell id="34" value="Design system architecture" style="rounded=1;arcSize=20;strokeWidth=2" vertex="1" parent="32">
          <mxGeometry x="381" y="55" width="224" height="54" as="geometry" />
        </mxCell>
        <mxCell id="35" value="Develop code modules" style="rounded=1;arcSize=20;strokeWidth=2" vertex="1" parent="32">
          <mxGeometry x="680" y="55" width="191" height="54" as="geometry" />
        </mxCell>
        <mxCell id="36" value="Perform unit testing" style="rounded=1;arcSize=20;strokeWidth=2" vertex="1" parent="32">
          <mxGeometry x="945" y="55" width="174" height="54" as="geometry" />
        </mxCell>
        <mxCell id="37" value="Iterate development process" style="rounded=1;arcSize=20;strokeWidth=2" vertex="1" parent="32">
          <mxGeometry x="1195" y="43" width="230" height="78" as="geometry" />
        </mxCell>
        <mxCell id="38" value="" style="curved=1;startArrow=none;endArrow=block;exitX=1;exitY=0.5;entryX=0;entryY=0.5;" edge="1" parent="32" source="33" target="34">
          <mxGeometry relative="1" as="geometry">
            <Array as="points" />
          </mxGeometry>
        </mxCell>
        <mxCell id="39" value="" style="curved=1;startArrow=none;endArrow=block;exitX=1;exitY=0.5;entryX=0;entryY=0.5;" edge="1" parent="32" source="34" target="35">
          <mxGeometry relative="1" as="geometry">
            <Array as="points" />
          </mxGeometry>
        </mxCell>
        <mxCell id="40" value="" style="curved=1;startArrow=none;endArrow=block;exitX=1;exitY=0.5;entryX=0;entryY=0.5;" edge="1" parent="32" source="35" target="36">
          <mxGeometry relative="1" as="geometry">
            <Array as="points" />
          </mxGeometry>
        </mxCell>
        <mxCell id="41" value="" style="curved=1;dashed=1;dashPattern=2 3;startArrow=none;endArrow=block;exitX=1;exitY=0.5;entryX=0;entryY=0.5;" edge="1" parent="32" source="36" target="37">
          <mxGeometry relative="1" as="geometry">
            <Array as="points" />
          </mxGeometry>
        </mxCell>
        <mxCell id="42" value="Planning" style="whiteSpace=wrap;strokeWidth=2;verticalAlign=top;" vertex="1" parent="1">
          <mxGeometry x="6008" y="8" width="1428" height="148" as="geometry" />
        </mxCell>
        <mxCell id="43" value="Identify project requirements" style="whiteSpace=wrap;strokeWidth=2;" vertex="1" parent="42">
          <mxGeometry x="46" y="43" width="260" height="78" as="geometry" />
        </mxCell>
        <mxCell id="44" value="Conduct feasibility study" style="rounded=1;arcSize=20;strokeWidth=2" vertex="1" parent="42">
          <mxGeometry x="381" y="55" width="208" height="54" as="geometry" />
        </mxCell>
        <mxCell id="45" value="Determine project scope" style="rounded=1;arcSize=20;strokeWidth=2" vertex="1" parent="42">
          <mxGeometry x="663" y="55" width="208" height="54" as="geometry" />
        </mxCell>
        <mxCell id="46" value="Develop project timelines" style="rounded=1;arcSize=20;strokeWidth=2" vertex="1" parent="42">
          <mxGeometry x="946" y="55" width="216" height="54" as="geometry" />
        </mxCell>
        <mxCell id="47" value="Allocate resources" style="rounded=1;arcSize=20;strokeWidth=2" vertex="1" parent="42">
          <mxGeometry x="1237" y="55" width="162" height="54" as="geometry" />
        </mxCell>
        <mxCell id="48" value="" style="curved=1;startArrow=none;endArrow=block;exitX=1;exitY=0.5;entryX=0;entryY=0.5;" edge="1" parent="42" source="43" target="44">
          <mxGeometry relative="1" as="geometry">
            <Array as="points" />
          </mxGeometry>
        </mxCell>
        <mxCell id="49" value="" style="curved=1;startArrow=none;endArrow=block;exitX=1;exitY=0.5;entryX=0;entryY=0.5;" edge="1" parent="42" source="44" target="45">
          <mxGeometry relative="1" as="geometry">
            <Array as="points" />
          </mxGeometry>
        </mxCell>
        <mxCell id="50" value="" style="curved=1;startArrow=none;endArrow=block;exitX=1;exitY=0.5;entryX=0;entryY=0.5;" edge="1" parent="42" source="45" target="46">
          <mxGeometry relative="1" as="geometry">
            <Array as="points" />
          </mxGeometry>
        </mxCell>
        <mxCell id="51" value="" style="curved=1;startArrow=none;endArrow=block;exitX=1;exitY=0.5;entryX=0;entryY=0.5;" edge="1" parent="42" source="46" target="47">
          <mxGeometry relative="1" as="geometry">
            <Array as="points" />
          </mxGeometry>
        </mxCell>
      </root>
    </mxGraphModel>
  </diagram>
</mxfile>
